<?xml version="1.0" encoding="UTF-8"?>
<svg id="Layer_2" data-name="Layer 2" xmlns="http://www.w3.org/2000/svg" viewBox="0 0 107.35 58.31">
  <defs>
    <style>
      .cls-1 {
        font-family: Microsoft-Yi-Baiti, 'Microsoft Yi Baiti';
        font-size: 22px;
        font-style: italic;
        stroke: #baa360;
        stroke-miterlimit: 10;
        stroke-width: .5px;
      }

      .cls-1, .cls-2 {
        fill: #baa360;
      }
    </style>
  </defs>
  <g id="Layer_1-2" data-name="Layer 1">
    <g>
      <path class="cls-2" d="M107.35,45.17s-1.64-.64-4.49-1.84c-1.41-.66-3.19-1.18-5.18-1.92-1.97-.77-4.28-1.38-6.77-2.14-.62-.19-1.25-.38-1.9-.57-.66-.15-1.33-.31-2-.47-1.35-.33-2.75-.67-4.19-1.01-1.44-.33-2.94-.54-4.46-.83-1.53-.26-3.07-.6-4.67-.76-1.59-.21-3.21-.42-4.84-.63-1.64-.17-3.31-.25-4.98-.41-.84-.07-1.68-.13-2.52-.2-.84-.04-1.69-.04-2.54-.07-1.7-.05-3.41-.09-5.11-.14-1.71.04-3.42.09-5.13.14-.86.03-1.72.03-2.57.07-.84.07-1.67.13-2.5.2-1.67.15-3.32.23-4.95.41-1.64.21-3.25.43-4.84.64-1.6.15-3.14.5-4.67.76-1.52.29-3.02.5-4.47.83-1.44.35-2.84.69-4.19,1.01-.68.16-1.35.31-2,.47-.65.19-1.28.38-1.9.57-2.49.75-4.79,1.37-6.78,2.14-1.99.74-3.78,1.26-5.18,1.91-2.83,1.19-4.49,1.83-4.49,1.83,0,0,1.51-.97,4.2-2.6,1.33-.87,3.03-1.68,4.98-2.66.49-.24.99-.5,1.51-.75.26-.13.52-.26.79-.39.27-.12.55-.23.83-.35,1.12-.46,2.3-.94,3.54-1.45.62-.25,1.25-.51,1.89-.77.65-.22,1.32-.45,2-.67,1.36-.44,2.77-.89,4.21-1.36,1.45-.44,2.97-.77,4.51-1.18,1.54-.39,3.12-.79,4.75-1.04,1.62-.28,3.27-.57,4.94-.86,1.68-.25,3.4-.39,5.13-.57.86-.09,1.73-.18,2.6-.26.86-.07,1.72-.07,2.58-.11,1.74-.06,3.48-.12,5.23-.17,1.75.06,3.5.12,5.25.18.87.03,1.74.05,2.61.11.86.09,1.73.17,2.58.26,1.72.18,3.42.32,5.1.57,1.67.29,3.32.58,4.94.86,1.62.25,3.2.65,4.75,1.05,1.54.4,3.05.74,4.51,1.17,1.44.47,2.85.92,4.21,1.36.68.23,1.34.45,2,.67.64.26,1.27.52,1.89.77,1.23.5,2.41.99,3.54,1.45.28.12.56.23.83.35.27.13.53.26.79.39.52.26,1.02.51,1.51.76,1.95.98,3.66,1.8,4.98,2.66,2.68,1.62,4.19,2.6,4.19,2.6Z"/>
      <polygon class="cls-2" points="74.37 0 63.02 8.3 51.66 0 40.43 8.2 29.21 0 6.44 16.63 6.44 42.14 14.04 39 14.04 20.48 29.21 9.4 34 12.9 28.9 16.63 28.9 33.05 36.49 33.05 36.49 20.48 40.43 17.6 46.86 12.9 51.66 9.4 56.59 13 63.02 17.7 66.83 20.48 66.83 33.05 74.42 33.05 74.42 16.63 69.45 13 74.37 9.4 89.54 20.48 89.54 36.85 97.13 40.16 97.13 16.63 74.37 0"/>
    </g>
    <text class="cls-1" transform="translate(27.57 54.4)"><tspan x="0" y="0">Keyper</tspan></text>
  </g>
</svg>