<?xml version="1.0" encoding="UTF-8"?>
<svg id="Layer_2" data-name="Layer 2" xmlns="http://www.w3.org/2000/svg" viewBox="0 0 107.35 57.85">
  <defs>
    <style>
      .cls-1 {
        stroke: #baa360;
        stroke-miterlimit: 10;
        stroke-width: .5px;
      }

      .cls-1, .cls-2 {
        fill: #baa360;
      }
    </style>
  </defs>
  <g id="Layer_1-2" data-name="Layer 1">
    <g>
      <path class="cls-2" d="M107.35,45.17s-1.64-.64-4.49-1.84c-1.41-.66-3.19-1.18-5.18-1.92-1.97-.77-4.28-1.38-6.77-2.14-.62-.19-1.25-.38-1.9-.57-.66-.15-1.33-.31-2-.47-1.35-.33-2.75-.67-4.19-1.01-1.44-.33-2.94-.54-4.46-.83-1.53-.26-3.07-.6-4.67-.76-1.59-.21-3.21-.42-4.84-.63-1.64-.17-3.31-.25-4.98-.41-.84-.07-1.68-.13-2.52-.2-.84-.04-1.69-.04-2.54-.07-1.7-.05-3.41-.09-5.11-.14-1.71.04-3.42.09-5.13.14-.86.03-1.72.03-2.57.07-.84.07-1.67.13-2.5.2-1.67.15-3.32.23-4.95.41-1.64.21-3.25.43-4.84.64-1.6.15-3.14.5-4.67.76-1.52.29-3.02.5-4.47.83-1.44.35-2.84.69-4.19,1.01-.68.16-1.35.31-2,.47-.65.19-1.28.38-1.9.57-2.49.75-4.79,1.37-6.78,2.14-1.99.74-3.78,1.26-5.18,1.91-2.83,1.19-4.49,1.83-4.49,1.83,0,0,1.51-.97,4.2-2.6,1.33-.87,3.03-1.68,4.98-2.66.49-.24.99-.5,1.51-.75.26-.13.52-.26.79-.39.27-.12.55-.23.83-.35,1.12-.46,2.3-.94,3.54-1.45.62-.25,1.25-.51,1.89-.77.65-.22,1.32-.45,2-.67,1.36-.44,2.77-.89,4.21-1.36,1.45-.44,2.97-.77,4.51-1.18,1.54-.39,3.12-.79,4.75-1.04,1.62-.28,3.27-.57,4.94-.86,1.68-.25,3.4-.39,5.13-.57.86-.09,1.73-.18,2.6-.26.86-.07,1.72-.07,2.58-.11,1.74-.06,3.48-.12,5.23-.17,1.75.06,3.5.12,5.25.18.87.03,1.74.05,2.61.11.86.09,1.73.17,2.58.26,1.72.18,3.42.32,5.1.57,1.67.29,3.32.58,4.94.86,1.62.25,3.2.65,4.75,1.05,1.54.4,3.05.74,4.51,1.17,1.44.47,2.85.92,4.21,1.36.68.23,1.34.45,2,.67.64.26,1.27.52,1.89.77,1.23.5,2.41.99,3.54,1.45.28.12.56.23.83.35.27.13.53.26.79.39.52.26,1.02.51,1.51.76,1.95.98,3.66,1.8,4.98,2.66,2.68,1.62,4.19,2.6,4.19,2.6Z"/>
      <polygon class="cls-2" points="74.37 0 63.02 8.3 51.66 0 40.43 8.2 29.21 0 6.44 16.63 6.44 42.14 14.04 39 14.04 20.48 29.21 9.4 34 12.9 28.9 16.63 28.9 33.05 36.49 33.05 36.49 20.48 40.43 17.6 46.86 12.9 51.66 9.4 56.59 13 63.02 17.7 66.83 20.48 66.83 33.05 74.42 33.05 74.42 16.63 69.45 13 74.37 9.4 89.54 20.48 89.54 36.85 97.13 40.16 97.13 16.63 74.37 0"/>
    </g>
    <g>
      <path class="cls-1" d="M38.19,54.4h-1.15l-4.7-6.42-2.4,2.32v4.1h-.86v-11.76h.86v6.47l6.67-6.47h1.19l-4.85,4.71,5.22,7.06Z"/>
      <path class="cls-1" d="M43.44,54.61c-.58,0-1.11-.1-1.58-.3-.47-.2-.88-.48-1.22-.86-.34-.38-.6-.84-.79-1.38-.19-.54-.28-1.16-.28-1.86s.09-1.28.27-1.82c.18-.54.43-1,.76-1.38.33-.38.72-.66,1.17-.87.45-.2.95-.3,1.5-.3s1.08.1,1.54.3c.46.2.85.49,1.17.87s.57.83.74,1.38.26,1.15.26,1.83v.19h-6.55c.04.57.15,1.06.31,1.47.16.42.38.76.64,1.04s.57.48.92.62c.35.14.73.2,1.13.2.29,0,.57-.03.86-.1s.55-.17.78-.31c.23-.14.43-.3.59-.51.16-.2.25-.43.28-.69h.85c-.08.39-.22.74-.42,1.05-.2.3-.45.56-.74.77-.29.21-.63.37-1,.48s-.77.16-1.19.16ZM46.11,49.56c-.14-.95-.47-1.67-.97-2.14-.5-.47-1.13-.71-1.86-.71-.37,0-.71.06-1.02.17-.31.12-.6.29-.84.53s-.46.53-.62.89c-.17.36-.29.78-.36,1.26h5.68Z"/>
      <path class="cls-1" d="M55.49,46.07l-3.03,8.48c-.19.5-.37.94-.56,1.32-.19.38-.4.7-.62.96s-.47.45-.74.58-.57.19-.9.19c-.11,0-.23,0-.33-.01-.11,0-.22-.02-.32-.03v-.92c.06,0,.12.01.18.01h.2c.49,0,.92-.17,1.27-.51.35-.34.66-.89.92-1.66l-3.17-8.4h.95l2.72,7.26,2.49-7.26h.93Z"/>
      <path class="cls-1" d="M58.25,47.31c.27-.33.54-.59.79-.78s.5-.34.74-.44c.24-.1.46-.16.68-.19.22-.03.43-.04.64-.04.52,0,.97.1,1.38.31.4.21.74.5,1.01.88.27.38.48.83.62,1.36.14.53.21,1.12.21,1.76,0,.68-.08,1.29-.25,1.84s-.4,1.01-.7,1.4c-.3.39-.65.69-1.05.9-.41.21-.84.32-1.32.32-.2,0-.41,0-.62-.03-.21-.02-.44-.06-.67-.13-.23-.07-.47-.18-.71-.32-.24-.14-.5-.33-.75-.56v3.89h-.86v-11.39h.86v1.24ZM58.25,52.53c.77.82,1.66,1.23,2.67,1.23.39,0,.74-.08,1.05-.23s.58-.38.8-.68c.22-.3.39-.67.52-1.12.12-.45.18-.97.18-1.56,0-1.13-.22-1.99-.65-2.57-.43-.58-1.04-.87-1.83-.87-1.03,0-1.94.56-2.73,1.67v4.15Z"/>
      <path class="cls-1" d="M69.91,54.61c-.58,0-1.11-.1-1.58-.3-.47-.2-.88-.48-1.22-.86-.34-.38-.6-.84-.79-1.38-.19-.54-.28-1.16-.28-1.86s.09-1.28.27-1.82.43-1,.76-1.38c.33-.38.72-.66,1.17-.87.45-.2.95-.3,1.5-.3s1.08.1,1.54.3c.46.2.85.49,1.17.87s.57.83.74,1.38c.17.54.26,1.15.26,1.83v.19h-6.55c.04.57.15,1.06.31,1.47.17.42.38.76.65,1.04.26.28.57.48.92.62.35.14.73.2,1.13.2.29,0,.57-.03.86-.1s.55-.17.78-.31c.23-.14.43-.3.58-.51.16-.2.25-.43.28-.69h.85c-.08.39-.22.74-.42,1.05-.2.3-.45.56-.74.77-.29.21-.63.37-1,.48s-.77.16-1.19.16ZM72.58,49.56c-.14-.95-.47-1.67-.97-2.14-.5-.47-1.13-.71-1.86-.71-.37,0-.71.06-1.02.17-.32.12-.6.29-.84.53s-.46.53-.62.89c-.17.36-.29.78-.36,1.26h5.68Z"/>
      <path class="cls-1" d="M79.52,46.74c-.08-.01-.17-.02-.26-.02h-.31c-.24,0-.48.05-.71.15-.23.1-.45.23-.66.39-.21.16-.4.34-.58.55-.18.2-.33.41-.46.63v5.96h-.86v-8.33h.86v1.15c.24-.29.49-.52.73-.7.24-.18.47-.32.7-.42.23-.1.44-.17.65-.2.21-.03.4-.05.57-.05.06,0,.11,0,.16,0,.05,0,.11,0,.17.02v.86Z"/>
    </g>
  </g>
</svg>